<svg xmlns="http://www.w3.org/2000/svg" viewBox="0 17.75 51.45000076293945 35.70000076293945" data-asc="1.069" width="51.45000076293945" height="35.70000076293945"><defs/><g fill="#1441c8"><g transform="translate(0, 0)"><path d="M4.20 22.50Q3.70 20.90 2.90 20.37Q2.10 19.85 0.65 19.85L0 19.85L0 17.75L13.75 17.75L13.75 19.85L12.60 19.85Q9.60 19.85 9.60 22.25Q9.60 22.65 9.73 23.10Q9.85 23.55 10.00 24.10L14.60 40.10Q15.25 42.35 15.80 44.55Q16.35 46.75 16.75 48.55Q17.15 46.60 17.65 44.27Q18.15 41.95 18.80 39.55L24.75 18.10L28.35 18.10L34.60 39.75Q35.30 42.20 35.85 44.50Q36.40 46.80 36.75 48.55Q37.15 46.75 37.63 44.75Q38.10 42.75 38.75 40.35L43.15 24.90Q43.30 24.30 43.50 23.50Q43.70 22.70 43.70 22.30Q43.70 19.85 40.40 19.85L39.25 19.85L39.25 17.75L51.45 17.75L51.45 19.85L50.50 19.85Q49.05 19.85 48.23 20.55Q47.40 21.25 46.70 23.75L38.25 53.45L33.75 53.45L25.60 25.45L17.95 53.45L13.35 53.45L4.20 22.50Z"/></g></g></svg>